# xmcd
#
# Track frame offsets:
#	150
#	16240
#	31850
#	48197
#	59867
#	75260
#	90582
#	105937
#	118337
#	133532
#
# Disc length: 1923 seconds
# Revision: 2
# Processed by: cddbd v1.5.2PL0 Copyright (c) Steve Scherf et al.
# Submitted via: dBpowerAMP V12.0
#
DISCID=7307810a
DTITLE=Kippi Brannon - I'd Be With You
DYEAR=1997
DGENRE=Country
TTITLE0=I'd Be With You
TTITLE1=The Greatest Love I've Ever Known
TTITLE2=Daddy's Little Girl
TTITLE3=Your Leavin' Sure Opened up Some Doors
TTITLE4=Two More to Drive Away
TTITLE5=Touch My Heart
TTITLE6=The Trouble With Love
TTITLE7=Everybody's Been to L.A.
TTITLE8=Sam Loves Joann
TTITLE9=I Ain't Never
EXTD=
EXTT0=
EXTT1=
EXTT2=
EXTT3=
EXTT4=
EXTT5=
EXTT6=
EXTT7=
EXTT8=
EXTT9=
PLAYORDER=
